<svg width="1500" height="935" viewBox="0 0 1500 935" fill="none" xmlns="http://www.w3.org/2000/svg">
<g clip-path="url(#clip0_1_70)">
<g clip-path="url(#clip1_1_70)">
<g clip-path="url(#clip2_1_70)">
<g clip-path="url(#clip3_1_70)">
<path d="M645.367 4.2472C601.385 7.66078 555.302 15.9321 535.608 23.9409C515.127 32.3435 494.776 47.0482 470.619 71.0745C451.713 89.8491 443.704 99.8273 441.21 107.836C440.159 110.724 438.978 118.996 438.584 126.217C437.796 138.296 437.14 140.528 431.1 153.788C427.424 161.665 420.466 179.39 415.476 193.175L406.549 218.121V233.219C406.417 245.823 406.943 249.893 409.7 258.165C415.608 276.414 413.245 308.055 405.498 312.125C401.297 314.357 391.319 312.782 381.341 308.318L372.282 304.116L379.371 310.681C383.179 314.226 389.481 318.69 393.288 320.79L400.247 324.335L398.277 328.405C393.288 337.99 372.938 361.753 346.68 388.799C338.146 397.465 330.268 406.524 328.955 409.018C326.067 414.795 326.855 426.217 330.4 431.075C332.238 433.438 341.953 438.559 362.435 447.88L391.975 461.403L391.713 469.018C391.45 477.684 387.38 491.732 383.441 498.165C381.997 500.528 378.977 503.548 376.877 504.73C373.595 506.568 372.938 507.749 372.938 511.951C372.938 519.04 375.826 524.948 381.472 529.544C387.249 534.401 394.732 536.502 406.023 536.502H414.295L408.387 540.047C398.015 546.086 394.207 549.631 391.319 555.539C387.905 562.76 388.824 567.093 394.732 570.769C401.297 574.839 407.993 583.242 410.619 590.857C414.032 600.572 413.638 619.216 409.831 634.051C406.943 645.211 406.943 645.868 409.043 651.119C414.426 664.774 427.03 673.701 446.461 677.771C459.853 680.66 482.172 679.61 493.07 675.671C517.49 667.006 550.444 661.491 585.761 660.31L610.181 659.522L623.311 677.115C669.525 738.822 696.702 795.408 709.832 857.509C713.245 873.133 713.508 877.072 713.508 903.724C713.639 922.761 714.033 932.477 714.952 931.951C716.002 931.295 970.182 740.397 971.364 739.347C971.495 739.216 964.537 732.126 955.74 723.461C878.672 647.837 840.072 583.504 842.698 535.058C842.961 531.119 843.749 529.937 847.95 527.706C857.272 522.323 874.471 508.8 887.994 495.802C903.224 481.228 905.587 480.309 912.545 486.217C916.353 489.368 916.747 490.288 916.09 495.014C915.696 498.034 912.939 505.386 910.051 511.557C907.162 517.727 903.224 528.756 901.254 535.846C896.659 553.045 896.003 581.535 899.941 596.24C903.486 609.631 908.738 621.71 915.959 633.264C924.887 647.706 949.963 672.651 967.162 683.942C979.11 691.951 1004.71 705.868 1007.21 705.868C1007.73 705.868 1003 700.747 996.703 694.445C979.11 676.59 967.031 656.371 965.324 641.666L964.668 635.758L970.445 640.485C986.725 653.614 1016.53 670.55 1035.7 677.509C1058.15 685.518 1065.11 686.699 1090.44 686.831C1117.88 686.831 1127.86 684.861 1148.21 675.146C1161.74 668.581 1175.65 659.128 1169.48 660.441C1154.78 663.723 1146.24 662.279 1138.23 655.058C1132.06 649.413 1127.6 641.404 1124.45 629.588C1122.61 622.76 1122.09 615.146 1121.82 589.019C1121.69 561.841 1121.17 554.752 1118.8 543.46C1110.66 504.598 1090.58 471.382 1061.95 449.719C1039.5 432.782 1024.41 429.368 1001.56 436.064C987.513 440.266 972.151 441.578 964.143 439.478C957.053 437.508 951.276 431.994 949.307 425.167C947.6 419.784 947.731 419.653 956.79 401.666C978.191 359.915 987.644 322.103 987.513 278.515C987.513 235.32 978.453 197.377 958.366 156.283C949.963 138.952 934.602 115.057 921.342 98.6456C909.394 83.8097 883.792 59.6521 869.088 49.1488C838.891 27.4858 800.554 13.9628 749.613 6.61045C735.171 4.64108 662.435 2.93429 645.367 4.2472ZM763.924 73.0438C790.182 75.4071 809.088 80.5274 831.932 91.2933C922.523 134.357 965.85 238.996 932.239 333.657C922.261 361.491 908.213 383.548 885.762 405.999C857.928 433.701 828.125 450.244 789.263 459.171C781.254 461.141 771.145 462.06 754.339 462.585C717.972 463.635 694.864 458.909 663.486 443.942C624.23 425.298 592.588 394.051 572.895 354.926C559.897 328.799 554.251 305.692 553.201 273.92C552.676 254.357 552.938 248.58 555.17 235.189C562.523 192.519 582.348 155.626 613.858 125.692C649.438 92.0811 693.158 74.0942 745.149 71.8622C747.381 71.8622 755.783 72.3874 763.924 73.0438Z" fill="black"/>
<path d="M757.884 207.88C744.361 245.561 713.114 336.152 713.376 336.545C714.427 337.596 733.333 339.434 733.989 338.646C734.514 337.99 745.411 307.136 758.278 269.981C771.145 232.825 781.91 201.709 782.173 200.921C782.829 199.215 779.81 198.296 769.306 197.114L761.954 196.195L757.884 207.88Z" fill="black"/>
<path d="M634.208 225.21L586.286 251.075V268.668V286.13L633.551 310.812C659.547 324.467 681.21 335.495 681.866 335.626C682.392 335.626 682.785 327.749 682.785 318.033V300.572L653.639 285.211C637.49 276.677 623.967 269.324 623.442 268.799C622.917 268.274 636.046 260.528 652.588 251.6L682.785 235.189V217.07C682.785 207.224 682.654 199.083 682.523 199.215C682.26 199.215 660.597 210.9 634.208 225.21Z" fill="black"/>
<path d="M804.886 217.202V235.189L835.083 251.6C851.626 260.528 864.755 268.274 864.23 268.799C863.705 269.324 850.182 276.677 834.164 285.211L804.886 300.572V318.165C804.886 327.749 805.28 335.626 805.937 335.626C806.462 335.626 828.781 324.467 855.434 310.812L904.011 285.998V268.537V251.075L871.845 234.27C854.121 224.948 831.801 213.263 822.348 208.274L804.886 199.215V217.202Z" fill="black"/>
</g>
</g>
</g>
</g>
<defs>
<clipPath id="clip0_1_70">
<rect width="1500" height="935" fill="white"/>
</clipPath>
<clipPath id="clip1_1_70">
<rect width="1500" height="935" fill="white" transform="translate(-0.909058 0.37854)"/>
</clipPath>
<clipPath id="clip2_1_70">
<rect width="1497.21" height="935.757" fill="white" transform="translate(0.485229)"/>
</clipPath>
<clipPath id="clip3_1_70">
<rect width="843.796" height="928.186" fill="white" transform="translate(327.193 3.7854)"/>
</clipPath>
</defs>
</svg>
